<svg width="128" height="128" viewBox="0 0 128 128" fill="none" xmlns="http://www.w3.org/2000/svg">
<g clip-path="url(#clip0_3510_234)">
<path d="M128 64C128 28.6541 99.3459 0 64 0C28.6541 0 0 28.6541 0 64C0 94.0134 20.6643 119.199 48.5402 126.116V83.5584H35.3434V64H48.5402V55.5725C48.5402 33.7894 58.3987 23.6928 79.785 23.6928C83.84 23.6928 90.8365 24.489 93.6986 25.2826V43.0106C92.1882 42.8518 89.5642 42.7725 86.3053 42.7725C75.8118 42.7725 71.7568 46.7482 71.7568 57.0829V64H92.6618L89.0701 83.5584H71.7568V127.532C103.447 123.704 128.003 96.7219 128.003 64H128Z" fill="#0866FF"/>
<path d="M89.0675 83.5583L92.6592 63.9999H71.7543V57.0828C71.7543 46.7481 75.8093 42.7724 86.3027 42.7724C89.5616 42.7724 92.1856 42.8518 93.696 43.0105V25.2825C90.8339 24.4863 83.8375 23.6927 79.7824 23.6927C58.3962 23.6927 48.5376 33.7894 48.5376 55.5724V63.9999H35.3408V83.5583H48.5376V126.116C53.4887 127.345 58.6675 128 63.9975 128C66.6215 128 69.2096 127.839 71.7517 127.531V83.5583H89.065H89.0675Z" fill="white"/>
</g>
<defs>
<clipPath id="clip0_3510_234">
<rect width="128" height="128" fill="white"/>
</clipPath>
</defs>
</svg>
