<svg width="128" height="128" viewBox="0 0 128 128" fill="none" xmlns="http://www.w3.org/2000/svg">
<path d="M64.0209 0C37.3015 0 29.4871 0.0275716 27.9681 0.153613C22.4848 0.609528 19.0728 1.47311 15.3556 3.32434C12.4909 4.74723 10.2316 6.3966 8.00189 8.70867C3.94111 12.9252 1.48004 18.1125 0.589127 24.2787C0.155978 27.2722 0.0299704 27.8827 0.00437525 43.1731C-0.00546906 48.2699 0.00437525 54.9777 0.00437525 63.9749C0.00437525 90.6799 0.0339082 98.4886 0.161884 100.005C0.604878 105.342 1.44164 108.7 3.21362 112.373C6.60006 119.404 13.0678 124.682 20.6873 126.651C23.3255 127.33 26.2394 127.705 29.9803 127.882C31.5652 127.951 47.7197 128 63.8841 128C80.0484 128 96.2128 127.98 97.7583 127.902C102.09 127.698 104.605 127.36 107.386 126.641C111.164 125.672 114.685 123.89 117.703 121.418C120.721 118.947 123.164 115.847 124.86 112.333C126.597 108.749 127.478 105.263 127.877 100.205C127.964 99.102 128 81.5183 128 63.9581C128 46.3951 127.961 28.8438 127.874 27.7409C127.47 22.6008 126.589 19.1445 124.796 15.4913C123.324 12.5008 121.69 10.2675 119.317 7.98394C115.084 3.9388 109.906 1.47705 103.735 0.58688C100.745 0.154598 100.149 0.0265869 84.8514 0H64.0209Z" fill="url(#paint0_radial_3510_242)"/>
<path d="M64.0209 0C37.3015 0 29.4871 0.0275716 27.9681 0.153613C22.4848 0.609528 19.0728 1.47311 15.3556 3.32434C12.4909 4.74723 10.2316 6.3966 8.00189 8.70867C3.94111 12.9252 1.48004 18.1125 0.589127 24.2787C0.155978 27.2722 0.0299704 27.8827 0.00437525 43.1731C-0.00546906 48.2699 0.00437525 54.9777 0.00437525 63.9749C0.00437525 90.6799 0.0339082 98.4886 0.161884 100.005C0.604878 105.342 1.44164 108.7 3.21362 112.373C6.60006 119.404 13.0678 124.682 20.6873 126.651C23.3255 127.33 26.2394 127.705 29.9803 127.882C31.5652 127.951 47.7197 128 63.8841 128C80.0484 128 96.2128 127.98 97.7583 127.902C102.09 127.698 104.605 127.36 107.386 126.641C111.164 125.672 114.685 123.89 117.703 121.418C120.721 118.947 123.164 115.847 124.86 112.333C126.597 108.749 127.478 105.263 127.877 100.205C127.964 99.102 128 81.5183 128 63.9581C128 46.3951 127.961 28.8438 127.874 27.7409C127.47 22.6008 126.589 19.1445 124.796 15.4913C123.324 12.5008 121.69 10.2675 119.317 7.98394C115.084 3.9388 109.906 1.47705 103.735 0.58688C100.745 0.154598 100.149 0.0265869 84.8514 0H64.0209Z" fill="url(#paint1_radial_3510_242)"/>
<path d="M63.9913 16.7399C51.1583 16.7399 49.5478 16.796 44.5075 17.0254C39.477 17.2559 36.0434 18.0525 33.0389 19.2213C29.931 20.4285 27.2947 22.0435 24.6683 24.6716C22.0398 27.2988 20.4254 29.9358 19.2145 33.0435C18.043 36.0498 17.2457 39.4854 17.0192 44.5153C16.7948 49.5569 16.7357 51.1689 16.7357 64.0054C16.7357 76.8419 16.7928 78.448 17.0212 83.4896C17.2525 88.5215 18.0489 91.9561 19.2165 94.9614C20.4244 98.0701 22.0388 100.707 24.6663 103.334C27.2918 105.963 29.9281 107.582 33.0339 108.79C36.0404 109.958 39.4751 110.755 44.5045 110.985C49.5448 111.215 51.1544 111.271 63.9864 111.271C76.8204 111.271 78.426 111.215 83.4663 110.985C88.4968 110.755 91.9344 109.958 94.9408 108.79C98.0477 107.582 100.68 105.963 103.306 103.334C105.934 100.707 107.548 98.0701 108.759 94.9624C109.921 91.9561 110.718 88.5205 110.955 83.4906C111.181 78.449 111.24 76.8419 111.24 64.0054C111.24 51.1689 111.181 49.5579 110.955 44.5162C110.718 39.4844 109.921 36.0498 108.759 33.0445C107.548 29.9358 105.934 27.2988 103.306 24.6716C100.677 22.0425 98.0487 20.4276 94.9379 19.2213C91.9255 18.0525 88.4899 17.2559 83.4594 17.0254C78.4191 16.796 76.8145 16.7399 63.9775 16.7399H63.9913ZM59.7524 25.2575C61.0105 25.2555 62.4143 25.2575 63.9913 25.2575C76.6078 25.2575 78.1031 25.3028 83.0853 25.5293C87.6925 25.74 90.1929 26.51 91.8586 27.157C94.0637 28.0137 95.6358 29.0378 97.2887 30.6921C98.9425 32.3464 99.9663 33.9219 100.825 36.1276C101.472 37.7917 102.242 40.2929 102.452 44.9013C102.678 49.8838 102.728 51.3806 102.728 63.9946C102.728 76.6086 102.678 78.1053 102.452 83.0879C102.241 87.6963 101.472 90.1974 100.825 91.8615C99.9683 94.0673 98.9425 95.6379 97.2887 97.2912C95.6349 98.9455 94.0647 99.9696 91.8586 100.826C90.1949 101.476 87.6925 102.244 83.0853 102.455C78.1041 102.681 76.6078 102.731 63.9913 102.731C51.3739 102.731 49.8785 102.681 44.8973 102.455C40.2902 102.242 37.7897 101.472 36.1231 100.825C33.918 99.9686 32.3429 98.9445 30.689 97.2902C29.0352 95.6359 28.0114 94.0643 27.153 91.8576C26.5062 90.1935 25.7354 87.6923 25.5257 83.0839C25.2993 78.1014 25.254 76.6046 25.254 63.9828C25.254 51.3609 25.2993 49.872 25.5257 44.8895C25.7364 40.2811 26.5062 37.7799 27.153 36.1138C28.0094 33.9081 29.0352 32.3326 30.689 30.6783C32.3429 29.024 33.918 27.9999 36.1231 27.1412C37.7887 26.4913 40.2902 25.7233 44.8973 25.5116C49.2564 25.3146 50.9457 25.2555 59.7524 25.2457V25.2575ZM89.2144 33.1056C88.0928 33.1056 86.9965 33.4383 86.0639 34.0616C85.1314 34.6849 84.4046 35.5708 83.9755 36.6074C83.5464 37.6439 83.4342 38.7844 83.6532 39.8847C83.8721 40.985 84.4124 41.9956 85.2056 42.7887C85.9988 43.5819 87.0093 44.1219 88.1094 44.3405C89.2094 44.5592 90.3496 44.4466 91.3857 44.017C92.4218 43.5874 93.3072 42.8601 93.9301 41.9271C94.5529 40.9941 94.8851 39.8973 94.8847 38.7755C94.8847 35.6441 92.3449 33.1036 89.2144 33.1036V33.1056ZM63.9913 39.7326C50.5903 39.7326 39.7251 50.6007 39.7251 64.0054C39.7251 77.4101 50.5903 88.2733 63.9913 88.2733C77.3924 88.2733 88.2546 77.4101 88.2546 64.0054C88.2546 50.6007 77.3914 39.7326 63.9903 39.7326H63.9913ZM63.9913 48.2502C72.6898 48.2502 79.7422 55.3036 79.7422 64.0054C79.7422 72.7062 72.6898 79.7606 63.9913 79.7606C55.2919 79.7606 48.2404 72.7062 48.2404 64.0054C48.2404 55.3036 55.2919 48.2502 63.9913 48.2502V48.2502Z" fill="white"/>
<defs>
<radialGradient id="paint0_radial_3510_242" cx="0" cy="0" r="1" gradientUnits="userSpaceOnUse" gradientTransform="translate(34.0002 137.859) rotate(-90) scale(126.857 117.987)">
<stop stop-color="#FFDD55"/>
<stop offset="0.1" stop-color="#FFDD55"/>
<stop offset="0.5" stop-color="#FF543E"/>
<stop offset="1" stop-color="#C837AB"/>
</radialGradient>
<radialGradient id="paint1_radial_3510_242" cx="0" cy="0" r="1" gradientUnits="userSpaceOnUse" gradientTransform="translate(-21.4407 9.2209) rotate(78.6806) scale(56.7058 233.744)">
<stop stop-color="#3771C8"/>
<stop offset="0.128" stop-color="#3771C8"/>
<stop offset="1" stop-color="#6600FF" stop-opacity="0"/>
</radialGradient>
</defs>
</svg>
