<svg width="128" height="128" viewBox="0 0 128 128" fill="none" xmlns="http://www.w3.org/2000/svg">
<path d="M91.6081 46.2052C99.8393 52.1102 109.923 55.5845 120.814 55.5845V34.5527C118.753 34.5531 116.697 34.3374 114.68 33.9087V50.4637C103.79 50.4637 93.7082 46.9894 85.4748 41.0849V84.0047C85.4748 105.475 68.1312 122.88 46.7381 122.88C38.7558 122.88 31.3366 120.458 25.1735 116.304C32.2077 123.522 42.0174 128 52.8702 128C74.2646 128 91.609 110.596 91.609 89.1242V46.2052H91.6081V46.2052ZM99.1743 24.9867C94.9677 20.3746 92.2058 14.4143 91.6081 7.82501V5.11987H85.7959C87.2589 13.4949 92.2491 20.6501 99.1743 24.9867ZM38.7047 99.8284C36.3544 96.7358 35.0843 92.9526 35.09 89.0627C35.09 79.2428 43.0228 71.2807 52.8098 71.2807C54.6338 71.2803 56.4468 71.5606 58.185 72.1141V50.6122C56.1537 50.3328 54.1035 50.2142 52.0542 50.2577V66.9937C50.3147 66.4402 48.5008 66.1591 46.6764 66.1608C36.8895 66.1608 28.9571 74.1221 28.9571 83.9432C28.9571 90.8875 32.9222 96.8996 38.7047 99.8284Z" fill="#FF004F"/>
<path d="M85.4745 41.0845C93.7079 46.9889 103.79 50.4633 114.68 50.4633V33.9082C108.601 32.6088 103.22 29.4209 99.174 24.9867C92.2484 20.6496 87.2586 13.4945 85.7956 5.11987H70.5284V89.1233C70.4939 98.9164 62.5746 106.846 52.8086 106.846C47.0537 106.846 41.941 104.093 38.7031 99.8284C32.921 96.8996 28.9559 90.8871 28.9559 83.9437C28.9559 74.1234 36.8883 66.1613 46.6753 66.1613C48.5504 66.1613 50.3577 66.4543 52.0531 66.9942V50.2581C31.0358 50.6939 14.1328 67.9281 14.1328 89.1238C14.1328 99.7045 18.342 109.296 25.1737 116.305C31.3368 120.458 38.756 122.88 46.7383 122.88C68.1318 122.88 85.4749 105.475 85.4749 84.0047V41.0845H85.4745Z" fill="black"/>
<path d="M114.68 33.9083V29.4319C109.199 29.4403 103.825 27.8997 99.1742 24.9863C103.291 29.5097 108.712 32.6286 114.68 33.9083ZM85.7957 5.11991C85.6562 4.31953 85.549 3.51387 85.4746 2.70514V0H64.3948V84.0043C64.3611 93.7961 56.4422 101.726 46.6754 101.726C43.808 101.726 41.1007 101.043 38.7032 99.8288C41.9412 104.093 47.0538 106.846 52.8088 106.846C62.5739 106.846 70.4944 98.9169 70.5286 89.1238V5.11991H85.7957ZM52.0541 50.2582V45.4928C50.2927 45.2511 48.5168 45.1299 46.7388 45.1308C25.3436 45.1303 8 62.5354 8 84.0043C8 97.4641 14.8163 109.326 25.1742 116.304C18.3426 109.296 14.1334 99.7036 14.1334 89.1234C14.1334 67.9281 31.0359 50.6939 52.0541 50.2582Z" fill="#00F2EA"/>
</svg>
